# Blender v2.79 (sub 0) OBJ File: 'master_circle.blend'
# www.blender.org
mtllib ball.mtl
o Sphere
v 0.000000 0.900969 -0.433884
v 0.000000 1.000000 0.000000
v 0.255030 0.900969 -0.351019
v 0.000000 -0.900969 -0.433884
v 0.000000 -0.623490 -0.781832
v 0.459549 -0.623490 -0.632515
v 0.255030 -0.900969 -0.351019
v 0.000000 -0.222521 -0.974928
v 0.000000 0.222521 -0.974928
v 0.573048 0.222521 -0.788733
v 0.573048 -0.222521 -0.788733
v 0.000000 0.623490 -0.781832
v 0.459549 0.623490 -0.632515
v 0.000000 -1.000000 -0.000000
v 0.927211 -0.222521 -0.301269
v 0.743566 -0.623490 -0.241599
v 0.743566 0.623490 -0.241599
v 0.927211 0.222521 -0.301269
v 0.412648 0.900969 -0.134078
v 0.412648 -0.900969 -0.134078
v 0.412648 0.900969 0.134077
v 0.743566 -0.623490 0.241599
v 0.412648 -0.900969 0.134077
v 0.927211 0.222521 0.301269
v 0.927211 -0.222521 0.301269
v 0.743566 0.623490 0.241599
v 0.459549 -0.623490 0.632515
v 0.255030 -0.900969 0.351019
v 0.573048 0.222521 0.788733
v 0.573048 -0.222521 0.788733
v 0.255030 0.900969 0.351019
v 0.459549 0.623490 0.632515
v 0.000000 0.222521 0.974928
v 0.000000 -0.222521 0.974928
v 0.000000 0.900969 0.433883
v 0.000000 0.623490 0.781831
v 0.000000 -0.900969 0.433883
v 0.000000 -0.623490 0.781831
v -0.255030 -0.900969 0.351019
v -0.573048 -0.222521 0.788733
v -0.459549 -0.623490 0.632515
v -0.459549 0.623490 0.632515
v -0.573048 0.222521 0.788733
v -0.255030 0.900969 0.351019
v -0.412648 -0.900969 0.134077
v -0.927212 -0.222521 0.301269
v -0.743566 -0.623490 0.241599
v -0.743566 0.623490 0.241599
v -0.927212 0.222521 0.301269
v -0.412648 0.900969 0.134077
v -0.743566 0.623490 -0.241599
v -0.927212 0.222521 -0.301269
v -0.412648 0.900969 -0.134078
v -0.743566 -0.623490 -0.241599
v -0.412648 -0.900969 -0.134078
v -0.927212 -0.222521 -0.301269
v -0.459549 -0.623490 -0.632515
v -0.255030 -0.900969 -0.351019
v -0.573048 0.222521 -0.788733
v -0.573048 -0.222521 -0.788733
v -0.255030 0.900969 -0.351019
v -0.459549 0.623490 -0.632515
vn 0.0000 0.8834 -0.4685
vn 0.0000 1.0000 0.0000
vn 0.2754 0.8834 -0.3790
vn 0.0000 -0.8834 -0.4685
vn 0.0000 -0.6028 -0.7978
vn 0.4689 -0.6028 -0.6455
vn 0.2754 -0.8834 -0.3790
vn 0.0000 -0.2135 -0.9769
vn 0.0000 0.2135 -0.9769
vn 0.5742 0.2135 -0.7903
vn 0.5742 -0.2135 -0.7903
vn 0.0000 0.6028 -0.7978
vn 0.4689 0.6028 -0.6455
vn 0.0000 -1.0000 0.0000
vn 0.9291 -0.2135 -0.3019
vn 0.7588 -0.6028 -0.2465
vn 0.7588 0.6028 -0.2465
vn 0.9291 0.2135 -0.3019
vn 0.4456 0.8834 -0.1447
vn 0.4456 -0.8834 -0.1447
vn 0.4456 0.8834 0.1447
vn 0.7588 -0.6028 0.2465
vn 0.4456 -0.8834 0.1447
vn 0.9291 0.2135 0.3019
vn 0.9291 -0.2135 0.3019
vn 0.7588 0.6028 0.2465
vn 0.4689 -0.6028 0.6455
vn 0.2754 -0.8834 0.3790
vn 0.5742 0.2135 0.7903
vn 0.5742 -0.2135 0.7903
vn 0.2754 0.8834 0.3790
vn 0.4689 0.6028 0.6455
vn 0.0000 0.2135 0.9769
vn 0.0000 -0.2135 0.9769
vn 0.0000 0.8834 0.4685
vn 0.0000 0.6028 0.7978
vn 0.0000 -0.8834 0.4685
vn 0.0000 -0.6028 0.7978
vn -0.2754 -0.8834 0.3790
vn -0.5742 -0.2135 0.7903
vn -0.4689 -0.6028 0.6455
vn -0.4689 0.6028 0.6455
vn -0.5742 0.2135 0.7903
vn -0.2754 0.8834 0.3790
vn -0.4456 -0.8834 0.1447
vn -0.9291 -0.2135 0.3019
vn -0.7588 -0.6028 0.2465
vn -0.7588 0.6028 0.2465
vn -0.9291 0.2135 0.3019
vn -0.4456 0.8834 0.1447
vn -0.7588 0.6028 -0.2465
vn -0.9291 0.2135 -0.3019
vn -0.4456 0.8834 -0.1447
vn -0.7588 -0.6028 -0.2465
vn -0.4456 -0.8834 -0.1447
vn -0.9291 -0.2135 -0.3019
vn -0.4689 -0.6028 -0.6455
vn -0.2754 -0.8834 -0.3790
vn -0.5742 0.2135 -0.7903
vn -0.5742 -0.2135 -0.7903
vn -0.2754 0.8834 -0.3790
vn -0.4689 0.6028 -0.6455
usemtl None.002
s 1
f 1//1 2//2 3//3
f 4//4 5//5 6//6 7//7
f 8//8 9//9 10//10 11//11
f 12//12 1//1 3//3 13//13
f 14//14 4//4 7//7
f 5//5 8//8 11//11 6//6
f 9//9 12//12 13//13 10//10
f 6//6 11//11 15//15 16//16
f 10//10 13//13 17//17 18//18
f 3//3 2//2 19//19
f 7//7 6//6 16//16 20//20
f 11//11 10//10 18//18 15//15
f 13//13 3//3 19//19 17//17
f 14//14 7//7 20//20
f 19//19 2//2 21//21
f 20//20 16//16 22//22 23//23
f 15//15 18//18 24//24 25//25
f 17//17 19//19 21//21 26//26
f 14//14 20//20 23//23
f 16//16 15//15 25//25 22//22
f 18//18 17//17 26//26 24//24
f 23//23 22//22 27//27 28//28
f 25//25 24//24 29//29 30//30
f 26//26 21//21 31//31 32//32
f 14//14 23//23 28//28
f 22//22 25//25 30//30 27//27
f 24//24 26//26 32//32 29//29
f 21//21 2//2 31//31
f 30//30 29//29 33//33 34//34
f 32//32 31//31 35//35 36//36
f 14//14 28//28 37//37
f 27//27 30//30 34//34 38//38
f 29//29 32//32 36//36 33//33
f 31//31 2//2 35//35
f 28//28 27//27 38//38 37//37
f 14//14 37//37 39//39
f 38//38 34//34 40//40 41//41
f 33//33 36//36 42//42 43//43
f 35//35 2//2 44//44
f 37//37 38//38 41//41 39//39
f 34//34 33//33 43//43 40//40
f 36//36 35//35 44//44 42//42
f 14//14 39//39 45//45
f 41//41 40//40 46//46 47//47
f 43//43 42//42 48//48 49//49
f 44//44 2//2 50//50
f 39//39 41//41 47//47 45//45
f 40//40 43//43 49//49 46//46
f 42//42 44//44 50//50 48//48
f 49//49 48//48 51//51 52//52
f 50//50 2//2 53//53
f 45//45 47//47 54//54 55//55
f 46//46 49//49 52//52 56//56
f 48//48 50//50 53//53 51//51
f 14//14 45//45 55//55
f 47//47 46//46 56//56 54//54
f 55//55 54//54 57//57 58//58
f 56//56 52//52 59//59 60//60
f 51//51 53//53 61//61 62//62
f 14//14 55//55 58//58
f 54//54 56//56 60//60 57//57
f 52//52 51//51 62//62 59//59
f 53//53 2//2 61//61
f 58//58 57//57 5//5 4//4
f 60//60 59//59 9//9 8//8
f 62//62 61//61 1//1 12//12
f 14//14 58//58 4//4
f 57//57 60//60 8//8 5//5
f 59//59 62//62 12//12 9//9
f 61//61 2//2 1//1
