# Blender v2.79 (sub 0) OBJ File: ''
# www.blender.org
mtllib column.mtl
o Cylinder_Cylinder.004
v 0.002963 -3.510779 -0.844286
v 0.002963 3.489221 -0.844286
v 0.167718 3.489221 -0.828059
v 0.167718 -3.510779 -0.828059
v 0.326141 3.489221 -0.780002
v 0.326141 -3.510779 -0.780002
v 0.472144 3.489221 -0.701962
v 0.472144 -3.510779 -0.701962
v 0.600117 3.489221 -0.596937
v 0.600117 -3.510779 -0.596937
v 0.705142 3.489221 -0.468964
v 0.705142 -3.510779 -0.468964
v 0.783182 3.489221 -0.322961
v 0.783182 -3.510779 -0.322961
v 0.831239 3.489221 -0.164538
v 0.831239 -3.510779 -0.164538
v 0.847466 3.489221 0.000217
v 0.847466 -3.510779 0.000217
v 0.831239 3.489221 0.164971
v 0.831239 -3.510779 0.164971
v 0.783182 3.489221 0.323394
v 0.783182 -3.510779 0.323394
v 0.705142 3.489221 0.469397
v 0.705142 -3.510779 0.469397
v 0.600117 3.489221 0.597371
v 0.600117 -3.510779 0.597371
v 0.472144 3.489221 0.702395
v 0.472144 -3.510779 0.702395
v 0.326140 3.489221 0.780436
v 0.326140 -3.510779 0.780436
v 0.167717 3.489221 0.828493
v 0.167717 -3.510779 0.828493
v 0.002963 3.489221 0.844720
v 0.002963 -3.510779 0.844720
v -0.161792 3.489221 0.828493
v -0.161792 -3.510779 0.828493
v -0.320214 3.489221 0.780436
v -0.320214 -3.510779 0.780436
v -0.466218 3.489221 0.702395
v -0.466218 -3.510779 0.702395
v -0.594191 3.489221 0.597370
v -0.594191 -3.510779 0.597370
v -0.699216 3.489221 0.469397
v -0.699216 -3.510779 0.469397
v -0.777256 3.489221 0.323393
v -0.777256 -3.510779 0.323393
v -0.825313 3.489221 0.164970
v -0.825313 -3.510779 0.164970
v -0.841540 3.489221 0.000216
v -0.841540 -3.510779 0.000216
v -0.825313 3.489221 -0.164539
v -0.825313 -3.510779 -0.164539
v -0.777255 3.489221 -0.322961
v -0.777255 -3.510779 -0.322961
v -0.699215 3.489221 -0.468965
v -0.699215 -3.510779 -0.468965
v -0.594190 3.489221 -0.596938
v -0.594190 -3.510779 -0.596938
v -0.466217 3.489221 -0.701962
v -0.466217 -3.510779 -0.701962
v -0.320213 3.489221 -0.780003
v -0.320213 -3.510779 -0.780003
v -0.161790 3.489221 -0.828060
v -0.161790 -3.510779 -0.828060
v 0.705142 3.476819 0.469397
v 0.167718 3.476819 -0.828059
v -0.699216 3.476819 0.469397
v 0.002963 3.476819 0.844720
v 0.783182 3.476819 -0.322961
v -0.161790 3.476819 -0.828060
v 0.326141 3.476819 -0.780002
v 0.167717 3.476819 0.828493
v -0.841540 3.476819 0.000216
v -0.161792 3.476819 0.828493
v 0.847466 3.476819 0.000217
v -0.594190 3.476819 -0.596938
v 0.831239 3.476819 -0.164538
v -0.777256 3.476819 0.323393
v 0.600117 3.476819 0.597371
v -0.825313 3.476819 -0.164539
v 0.472144 3.476819 -0.701962
v -0.320214 3.476819 0.780436
v 0.831239 3.476819 0.164971
v -0.466217 3.476819 -0.701962
v 0.600117 3.476819 -0.596937
v 0.472144 3.476819 0.702395
v -0.777255 3.476819 -0.322961
v -0.825313 3.476819 0.164970
v 0.783182 3.476819 0.323394
v -0.466218 3.476819 0.702395
v 0.705142 3.476819 -0.468964
v 0.002963 3.476819 -0.844286
v -0.594191 3.476819 0.597370
v -0.320213 3.476819 -0.780003
v -0.699215 3.476819 -0.468965
v 0.326140 3.476819 0.780436
v 0.705142 -3.483954 0.469397
v 0.167718 -3.483954 -0.828059
v -0.699216 -3.483954 0.469397
v 0.002963 -3.483954 0.844720
v 0.783182 -3.483954 -0.322961
v -0.161790 -3.483954 -0.828060
v 0.326141 -3.483954 -0.780002
v 0.167717 -3.483954 0.828493
v -0.841540 -3.483954 0.000216
v -0.161792 -3.483954 0.828493
v 0.847466 -3.483954 0.000217
v -0.594190 -3.483954 -0.596938
v 0.831239 -3.483954 -0.164538
v -0.777256 -3.483954 0.323393
v 0.600117 -3.483954 0.597371
v -0.825313 -3.483954 -0.164539
v 0.472144 -3.483954 -0.701962
v -0.320214 -3.483954 0.780436
v 0.831239 -3.483954 0.164971
v -0.466217 -3.483954 -0.701962
v 0.600117 -3.483954 -0.596937
v 0.472144 -3.483954 0.702395
v -0.777255 -3.483954 -0.322961
v -0.825313 -3.483954 0.164970
v 0.783182 -3.483954 0.323394
v -0.466218 -3.483954 0.702395
v 0.705142 -3.483954 -0.468964
v -0.594191 -3.483954 0.597370
v -0.320213 -3.483954 -0.780003
v -0.699215 -3.483954 -0.468965
v 0.326140 -3.483954 0.780436
v 0.002963 -3.483954 -0.844286
vn 0.0000 0.0000 -1.0000
vn 0.0000 0.6857 -0.7279
vn 0.1420 0.6857 -0.7139
vn 0.1951 0.0000 -0.9808
vn 0.2786 0.6857 -0.6725
vn 0.3827 0.0000 -0.9239
vn 0.4044 0.6857 -0.6052
vn 0.5556 0.0000 -0.8315
vn 0.5147 0.6857 -0.5147
vn 0.7071 0.0000 -0.7071
vn 0.6052 0.6857 -0.4044
vn 0.8315 0.0000 -0.5556
vn 0.6725 0.6857 -0.2785
vn 0.9239 0.0000 -0.3827
vn 0.7139 0.6857 -0.1420
vn 0.9808 0.0000 -0.1951
vn 0.7279 0.6857 0.0000
vn 1.0000 0.0000 0.0000
vn 0.7139 0.6857 0.1420
vn 0.9808 -0.0000 0.1951
vn 0.6725 0.6857 0.2785
vn 0.9239 -0.0000 0.3827
vn 0.6052 0.6857 0.4044
vn 0.8315 -0.0000 0.5556
vn 0.5147 0.6857 0.5147
vn 0.7071 -0.0000 0.7071
vn 0.4044 0.6857 0.6052
vn 0.5556 -0.0000 0.8315
vn 0.2785 0.6857 0.6725
vn 0.3827 -0.0000 0.9239
vn 0.1420 0.6857 0.7139
vn 0.1951 -0.0000 0.9808
vn 0.0000 0.6857 0.7279
vn 0.0000 -0.0000 1.0000
vn -0.1420 0.6857 0.7139
vn -0.1951 -0.0000 0.9808
vn -0.2786 0.6857 0.6725
vn -0.3827 -0.0000 0.9239
vn -0.4044 0.6857 0.6052
vn -0.5556 -0.0000 0.8315
vn -0.5147 0.6857 0.5147
vn -0.7071 -0.0000 0.7071
vn -0.6052 0.6857 0.4044
vn -0.8315 -0.0000 0.5556
vn -0.6725 0.6857 0.2785
vn -0.9239 -0.0000 0.3827
vn -0.7139 0.6857 0.1420
vn -0.9808 -0.0000 0.1951
vn -0.7279 0.6857 0.0000
vn -1.0000 -0.0000 0.0000
vn -0.7139 0.6857 -0.1420
vn -0.9808 0.0000 -0.1951
vn -0.6725 0.6857 -0.2786
vn -0.9239 0.0000 -0.3827
vn -0.6052 0.6857 -0.4044
vn -0.8315 0.0000 -0.5556
vn -0.5147 0.6857 -0.5147
vn -0.7071 0.0000 -0.7071
vn -0.4044 0.6857 -0.6052
vn -0.5556 0.0000 -0.8315
vn -0.2785 0.6857 -0.6725
vn -0.3827 0.0000 -0.9239
vn -0.1420 0.6857 -0.7139
vn -0.1951 0.0000 -0.9808
vn 0.0000 -0.6857 -0.7279
vn 0.1420 -0.6857 -0.7139
vn 0.2785 -0.6857 -0.6725
vn 0.4044 -0.6857 -0.6052
vn 0.5147 -0.6857 -0.5147
vn 0.6052 -0.6857 -0.4044
vn 0.6725 -0.6857 -0.2786
vn 0.7139 -0.6857 -0.1420
vn 0.7279 -0.6857 0.0000
vn 0.7139 -0.6857 0.1420
vn 0.6725 -0.6857 0.2786
vn 0.6052 -0.6857 0.4044
vn 0.5147 -0.6857 0.5147
vn 0.4044 -0.6857 0.6052
vn 0.2786 -0.6857 0.6725
vn 0.1420 -0.6857 0.7139
vn 0.0000 -0.6857 0.7279
vn -0.1420 -0.6857 0.7139
vn -0.2786 -0.6857 0.6725
vn -0.4044 -0.6857 0.6052
vn -0.5147 -0.6857 0.5147
vn -0.6052 -0.6857 0.4044
vn -0.6725 -0.6857 0.2785
vn -0.7139 -0.6857 0.1420
vn -0.7279 -0.6857 0.0000
vn -0.7139 -0.6857 -0.1420
vn -0.6725 -0.6857 -0.2786
vn -0.6052 -0.6857 -0.4044
vn -0.5147 -0.6857 -0.5147
vn -0.4044 -0.6857 -0.6052
vn -0.2786 -0.6857 -0.6725
vn -0.1420 -0.6857 -0.7139
usemtl None.001
s 1
f 92//1 2//2 3//3 66//4
f 66//4 3//3 5//5 71//6
f 71//6 5//5 7//7 81//8
f 81//8 7//7 9//9 85//10
f 85//10 9//9 11//11 91//12
f 91//12 11//11 13//13 69//14
f 69//14 13//13 15//15 77//16
f 77//16 15//15 17//17 75//18
f 75//18 17//17 19//19 83//20
f 83//20 19//19 21//21 89//22
f 89//22 21//21 23//23 65//24
f 65//24 23//23 25//25 79//26
f 79//26 25//25 27//27 86//28
f 86//28 27//27 29//29 96//30
f 96//30 29//29 31//31 72//32
f 72//32 31//31 33//33 68//34
f 68//34 33//33 35//35 74//36
f 74//36 35//35 37//37 82//38
f 82//38 37//37 39//39 90//40
f 90//40 39//39 41//41 93//42
f 93//42 41//41 43//43 67//44
f 67//44 43//43 45//45 78//46
f 78//46 45//45 47//47 88//48
f 88//48 47//47 49//49 73//50
f 73//50 49//49 51//51 80//52
f 80//52 51//51 53//53 87//54
f 87//54 53//53 55//55 95//56
f 95//56 55//55 57//57 76//58
f 76//58 57//57 59//59 84//60
f 84//60 59//59 61//61 94//62
f 3//3 2//2 63//63 61//61 59//59 57//57 55//55 53//53 51//51 49//49 47//47 45//45 43//43 41//41 39//39 37//37 35//35 33//33 31//31 29//29 27//27 25//25 23//23 21//21 19//19 17//17 15//15 13//13 11//11 9//9 7//7 5//5
f 94//62 61//61 63//63 70//64
f 70//64 63//63 2//2 92//1
f 1//65 4//66 6//67 8//68 10//69 12//70 14//71 16//72 18//73 20//74 22//75 24//76 26//77 28//78 30//79 32//80 34//81 36//82 38//83 40//84 42//85 44//86 46//87 48//88 50//89 52//90 54//91 56//92 58//93 60//94 62//95 64//96
f 102//64 70//64 92//1 128//1
f 125//62 94//62 70//64 102//64
f 116//60 84//60 94//62 125//62
f 108//58 76//58 84//60 116//60
f 126//56 95//56 76//58 108//58
f 119//54 87//54 95//56 126//56
f 112//52 80//52 87//54 119//54
f 105//50 73//50 80//52 112//52
f 120//48 88//48 73//50 105//50
f 110//46 78//46 88//48 120//48
f 99//44 67//44 78//46 110//46
f 124//42 93//42 67//44 99//44
f 122//40 90//40 93//42 124//42
f 114//38 82//38 90//40 122//40
f 106//36 74//36 82//38 114//38
f 100//34 68//34 74//36 106//36
f 104//32 72//32 68//34 100//34
f 127//30 96//30 72//32 104//32
f 118//28 86//28 96//30 127//30
f 111//26 79//26 86//28 118//28
f 97//24 65//24 79//26 111//26
f 121//22 89//22 65//24 97//24
f 115//20 83//20 89//22 121//22
f 107//18 75//18 83//20 115//20
f 109//16 77//16 75//18 107//18
f 101//14 69//14 77//16 109//16
f 123//12 91//12 69//14 101//14
f 117//10 85//10 91//12 123//12
f 113//8 81//8 85//10 117//10
f 103//6 71//6 81//8 113//8
f 98//4 66//4 71//6 103//6
f 128//1 92//1 66//4 98//4
f 1//65 128//1 98//4 4//66
f 4//66 98//4 103//6 6//67
f 6//67 103//6 113//8 8//68
f 8//68 113//8 117//10 10//69
f 10//69 117//10 123//12 12//70
f 12//70 123//12 101//14 14//71
f 14//71 101//14 109//16 16//72
f 16//72 109//16 107//18 18//73
f 18//73 107//18 115//20 20//74
f 20//74 115//20 121//22 22//75
f 22//75 121//22 97//24 24//76
f 24//76 97//24 111//26 26//77
f 26//77 111//26 118//28 28//78
f 28//78 118//28 127//30 30//79
f 30//79 127//30 104//32 32//80
f 32//80 104//32 100//34 34//81
f 34//81 100//34 106//36 36//82
f 36//82 106//36 114//38 38//83
f 38//83 114//38 122//40 40//84
f 40//84 122//40 124//42 42//85
f 42//85 124//42 99//44 44//86
f 44//86 99//44 110//46 46//87
f 46//87 110//46 120//48 48//88
f 48//88 120//48 105//50 50//89
f 50//89 105//50 112//52 52//90
f 52//90 112//52 119//54 54//91
f 54//91 119//54 126//56 56//92
f 56//92 126//56 108//58 58//93
f 58//93 108//58 116//60 60//94
f 60//94 116//60 125//62 62//95
f 62//95 125//62 102//64 64//96
f 64//96 102//64 128//1 1//65
