# Blender v2.79 (sub 0) OBJ File: 'column.blend'
# www.blender.org
mtllib negative_segment.mtl
o Cylinder.000_Cylinder.004
v -0.647305 -0.590343 -3.055755
v -0.647305 0.579246 -3.055755
v 0.567664 -0.590343 -3.063799
v 0.567664 0.579246 -3.063799
v 0.171384 0.579246 -0.749711
v 0.146349 -0.590343 -0.747126
v -0.234219 0.579246 -0.738309
v -0.259253 -0.590343 -0.735725
vn -0.0066 0.0000 -1.0000
vn 0.0281 0.0016 0.9996
vn -0.9853 0.0107 0.1702
vn -0.0000 1.0000 -0.0000
vn 0.9847 -0.0103 0.1739
vn 0.0000 -1.0000 -0.0000
usemtl None
s off
f 1//1 2//1 4//1 3//1
f 6//2 5//2 7//2 8//2
f 1//3 8//3 7//3 2//3
f 2//4 7//4 5//4 4//4
f 3//5 4//5 5//5 6//5
f 1//6 3//6 6//6 8//6
