# Blender v2.79 (sub 0) OBJ File: 'master_circle.blend'
# www.blender.org
mtllib segment_triple.mtl
o BezierCurve
v -1.000000 0.000000 1.149993
v -0.831204 0.000000 1.149724
v -0.675774 0.000000 1.149549
v -0.529815 0.000000 1.149453
v -0.389434 0.000000 1.149424
v -0.250739 0.000000 1.149449
v -0.109835 0.000000 1.149513
v 0.037170 0.000000 1.149604
v 0.194172 0.000000 1.149709
v 0.365062 0.000000 1.149813
v 0.553734 0.000000 1.149904
v 0.764083 0.000000 1.149968
v 1.000000 0.000000 1.149993
l 1 2
l 2 3
l 3 4
l 4 5
l 5 6
l 6 7
l 7 8
l 8 9
l 9 10
l 10 11
l 11 12
l 12 13
o BezierCircle
v -2.000000 -0.000000 -0.000393
v -1.831204 0.000269 -0.000326
v -1.675773 0.000444 -0.000265
v -1.529815 0.000539 -0.000208
v -1.389434 0.000568 -0.000153
v -1.250739 0.000544 -0.000098
v -1.109835 0.000480 -0.000043
v -0.962830 0.000389 0.000015
v -0.805828 0.000284 0.000076
v -0.634938 0.000180 0.000143
v -0.446266 0.000089 0.000217
v -0.235917 0.000025 0.000300
v -0.000000 0.000000 0.000393
v -1.981763 -0.000000 -0.269959
v -1.814497 0.000269 -0.247290
v -1.660474 0.000444 -0.226416
v -1.515838 0.000539 -0.206814
v -1.376729 0.000568 -0.187961
v -1.239290 0.000544 -0.169334
v -1.099663 0.000480 -0.150411
v -0.953989 0.000389 -0.130669
v -0.798410 0.000284 -0.109584
v -0.629068 0.000180 -0.086633
v -0.442105 0.000089 -0.061295
v -0.233662 0.000025 -0.033046
v 0.000118 0.000000 -0.001362
v -1.928442 -0.000000 -0.530779
v -1.765681 0.000269 -0.486049
v -1.615807 0.000444 -0.444861
v -1.475066 0.000539 -0.406183
v -1.339705 0.000568 -0.368982
v -1.205968 0.000544 -0.332229
v -1.070101 0.000480 -0.294890
v -0.928351 0.000389 -0.255934
v -0.776963 0.000284 -0.214330
v -0.612182 0.000180 -0.169045
v -0.430254 0.000089 -0.119047
v -0.227426 0.000025 -0.063306
v 0.000057 0.000000 -0.000789
v -1.842410 -0.000000 -0.778483
v -1.686931 0.000269 -0.712770
v -1.543762 0.000444 -0.652260
v -1.409318 0.000539 -0.595437
v -1.280013 0.000568 -0.540787
v -1.152259 0.000544 -0.486792
v -1.022471 0.000480 -0.431937
v -0.887063 0.000389 -0.374707
v -0.742448 0.000284 -0.313586
v -0.585039 0.000180 -0.247057
v -0.411252 0.000089 -0.173606
v -0.217498 0.000025 -0.091717
v -0.000192 0.000000 0.000127
v -1.726320 -0.000000 -1.009885
v -1.580652 0.000269 -0.924603
v -1.446518 0.000444 -0.846074
v -1.320559 0.000539 -0.772330
v -1.199413 0.000568 -0.701405
v -1.079722 0.000544 -0.631331
v -0.958125 0.000480 -0.560141
v -0.831262 0.000389 -0.485868
v -0.695772 0.000284 -0.406546
v -0.548298 0.000180 -0.320206
v -0.385477 0.000089 -0.224881
v -0.203950 0.000025 -0.118606
v -0.000358 0.000000 0.000588
v -1.582770 -0.000000 -1.222466
v -1.449206 0.000269 -1.119253
v -1.326218 0.000444 -1.024213
v -1.210725 0.000539 -0.934965
v -1.099646 0.000568 -0.849127
v -0.989900 0.000544 -0.764320
v -0.878406 0.000480 -0.678163
v -0.762085 0.000389 -0.588274
v -0.637854 0.000284 -0.492273
v -0.502633 0.000180 -0.387780
v -0.353342 0.000089 -0.272414
v -0.186899 0.000025 -0.143794
v -0.000224 0.000000 0.000461
v -1.414123 -0.000000 -1.414103
v -1.294758 0.000269 -1.294755
v -1.184844 0.000444 -1.184856
v -1.081628 0.000539 -1.081656
v -0.982357 0.000568 -0.982399
v -0.884278 0.000544 -0.884333
v -0.784637 0.000480 -0.784707
v -0.680680 0.000389 -0.680765
v -0.569656 0.000284 -0.569757
v -0.448809 0.000180 -0.448928
v -0.315388 0.000089 -0.315526
v -0.166639 0.000025 -0.166798
v 0.000192 0.000000 0.000009
v -1.222498 -0.000000 -1.582786
v -1.119269 0.000269 -1.449235
v -1.024213 0.000444 -1.326259
v -0.934951 0.000539 -1.210777
v -0.849100 0.000568 -1.099708
v -0.764279 0.000544 -0.989973
v -0.678108 0.000480 -0.878490
v -0.588205 0.000389 -0.762180
v -0.492189 0.000284 -0.637961
v -0.387679 0.000180 -0.502753
v -0.272294 0.000089 -0.353476
v -0.143653 0.000024 -0.187049
v 0.000625 0.000000 -0.000392
v -1.009893 -0.000000 -1.726383
v -0.924602 0.000269 -1.580721
v -0.846064 0.000444 -1.446592
v -0.772312 0.000539 -1.320638
v -0.701379 0.000568 -1.199497
v -0.631297 0.000544 -1.079810
v -0.560099 0.000480 -0.958217
v -0.485818 0.000389 -0.831359
v -0.406487 0.000284 -0.695875
v -0.320137 0.000180 -0.548406
v -0.224802 0.000089 -0.385591
v -0.118514 0.000024 -0.204072
v 0.000693 0.000000 -0.000487
v -0.795338 -0.000000 -1.834658
v -0.728177 0.000269 -1.679798
v -0.666335 0.000444 -1.537200
v -0.608261 0.000539 -1.403292
v -0.552407 0.000568 -1.274502
v -0.497223 0.000544 -1.147257
v -0.441161 0.000480 -1.017987
v -0.382671 0.000389 -0.883118
v -0.320203 0.000284 -0.739079
v -0.252210 0.000180 -0.582298
v -0.177142 0.000089 -0.409202
v -0.093449 0.000024 -0.216221
v 0.000418 0.000000 0.000219
v -1.998883 -0.703979 -0.000328
v -1.830259 -0.703710 -0.000262
v -1.675150 -0.703534 -0.000244
v -1.529514 -0.703439 -0.000208
v -1.389434 -0.703432 -0.000153
v -1.250954 -0.703456 -0.000098
v -1.110201 -0.703499 -0.000065
v -0.963259 -0.703590 -0.000007
v -0.806258 -0.703694 0.000055
v -0.635303 -0.703799 0.000122
v -0.446545 -0.703890 0.000217
v -0.236046 -0.703975 0.000300
v -0.000065 -0.704000 0.000393
v -1.980668 -0.703979 -0.269830
v -1.813551 -0.703710 -0.247161
v -1.659851 -0.703534 -0.226351
v -1.515537 -0.703439 -0.206792
v -1.376729 -0.703432 -0.187961
v -1.239505 -0.703456 -0.169356
v -1.100028 -0.703499 -0.150454
v -0.954418 -0.703590 -0.130712
v -0.798840 -0.703694 -0.109627
v -0.629433 -0.703799 -0.086676
v -0.442362 -0.703890 -0.061316
v -0.233791 -0.703975 -0.033046
v 0.000054 -0.704000 -0.001362
v -1.927368 -0.703979 -0.530500
v -1.764757 -0.703710 -0.485813
v -1.615206 -0.703534 -0.444711
v -1.474787 -0.703439 -0.406118
v -1.339705 -0.703432 -0.368982
v -1.206161 -0.703456 -0.332272
v -1.070445 -0.703499 -0.294976
v -0.928781 -0.703590 -0.256042
v -0.777392 -0.703694 -0.214437
v -0.612547 -0.703799 -0.169130
v -0.430512 -0.703890 -0.119112
v -0.227555 -0.703975 -0.063327
v -0.000007 -0.704000 -0.000789
v -1.841379 -0.703979 -0.778053
v -1.686050 -0.703710 -0.712404
v -1.543182 -0.703535 -0.652023
v -1.409039 -0.703439 -0.595330
v -1.280013 -0.703432 -0.540787
v -1.152453 -0.703456 -0.486856
v -1.022815 -0.703499 -0.432066
v -0.887471 -0.703590 -0.374879
v -0.742856 -0.703694 -0.313758
v -0.585383 -0.703799 -0.247208
v -0.411509 -0.703890 -0.173714
v -0.217627 -0.703975 -0.091760
v -0.000257 -0.703978 0.000106
v -1.725353 -0.703979 -1.009326
v -1.579836 -0.703710 -0.924130
v -1.445981 -0.703535 -0.845773
v -1.320301 -0.703439 -0.772180
v -1.199413 -0.703432 -0.701405
v -1.079894 -0.703456 -0.631438
v -0.958447 -0.703499 -0.560313
v -0.831648 -0.703590 -0.486083
v -0.696159 -0.703694 -0.406760
v -0.548620 -0.703799 -0.320399
v -0.385713 -0.703890 -0.225010
v -0.204058 -0.703975 -0.118670
v -0.000401 -0.704000 0.000567
v -1.581889 -0.703979 -1.221800
v -1.448454 -0.703710 -1.118673
v -1.325724 -0.703534 -1.023826
v -1.210488 -0.703439 -0.934793
v -1.099646 -0.703432 -0.849127
v -0.990072 -0.703435 -0.764449
v -0.878686 -0.703499 -0.678377
v -0.762429 -0.703590 -0.588532
v -0.638198 -0.703694 -0.492531
v -0.502934 -0.703799 -0.388017
v -0.353557 -0.703890 -0.272564
v -0.187006 -0.703975 -0.143880
v -0.000267 -0.704000 0.000418
v -1.413350 -0.703979 -1.413329
v -1.294092 -0.703710 -1.294088
v -1.184414 -0.703534 -1.184427
v -1.081414 -0.703439 -1.081441
v -0.982357 -0.703432 -0.982399
v -0.884428 -0.703456 -0.884484
v -0.784894 -0.703499 -0.784964
v -0.680981 -0.703590 -0.681066
v -0.569956 -0.703694 -0.570057
v -0.449067 -0.703799 -0.449186
v -0.315582 -0.703890 -0.315719
v -0.166725 -0.703975 -0.166884
v 0.000149 -0.704000 -0.000034
v -1.221832 -0.703979 -1.581905
v -1.118689 -0.703710 -1.448483
v -1.023827 -0.703534 -1.325765
v -0.934779 -0.703439 -1.210540
v -0.849100 -0.703432 -1.099708
v -0.764408 -0.703435 -0.990145
v -0.678322 -0.703499 -0.878770
v -0.588462 -0.703590 -0.762523
v -0.492446 -0.703694 -0.638305
v -0.387915 -0.703799 -0.503054
v -0.272444 -0.703890 -0.353691
v -0.143739 -0.703976 -0.187157
v 0.000582 -0.704000 -0.000435
v -1.009335 -0.703979 -1.725438
v -0.924129 -0.703710 -1.579904
v -0.845763 -0.703534 -1.446055
v -0.772162 -0.703439 -1.320380
v -0.701379 -0.703432 -1.199497
v -0.631404 -0.703435 -1.079982
v -0.560271 -0.703499 -0.958540
v -0.486033 -0.703590 -0.831746
v -0.406701 -0.703694 -0.696262
v -0.320330 -0.703799 -0.548728
v -0.224931 -0.703890 -0.385828
v -0.118579 -0.703975 -0.204179
v 0.000672 -0.704000 -0.000530
v -0.794843 -0.703979 -1.833670
v -0.727748 -0.703710 -1.678939
v -0.666056 -0.703534 -1.536642
v -0.608132 -0.703439 -1.403034
v -0.552407 -0.703410 -1.274502
v -0.497309 -0.703435 -1.147451
v -0.441311 -0.703499 -1.018309
v -0.382864 -0.703590 -0.883505
v -0.320397 -0.703694 -0.739466
v -0.252382 -0.703799 -0.582642
v -0.177249 -0.703890 -0.409439
v -0.093513 -0.703976 -0.216350
v 0.000396 -0.704000 0.000155
v -0.000358 0.000000 0.000588
v -0.000358 0.000000 0.000588
v -0.000224 0.000000 0.000461
v 0.000192 0.000000 0.000009
v 0.000625 0.000000 -0.000392
v -0.795338 -0.000000 -1.834658
v -0.795338 -0.000000 -1.834658
v -0.728177 0.000269 -1.679798
v -2.000000 -0.000000 -0.000393
v -2.000000 -0.000000 -0.000393
v -1.981763 -0.000000 -0.269959
v -0.093449 0.000024 -0.216221
v 0.000418 0.000000 0.000219
v 0.000418 0.000000 0.000219
v -0.000000 0.000000 0.000393
v -0.000000 0.000000 0.000393
v 0.000118 0.000000 -0.001362
v 0.000118 0.000000 -0.001362
v -0.805828 0.000284 0.000076
v -0.634938 0.000180 0.000143
v -1.389434 0.000568 -0.000153
v -1.250739 0.000544 -0.000098
v -1.928442 -0.000000 -0.530779
v -1.842410 -0.000000 -0.778483
v -0.320203 0.000284 -0.739079
v -0.252210 0.000180 -0.582298
v -0.552407 0.000568 -1.274502
v -0.497223 0.000544 -1.147257
v -1.831204 0.000269 -0.000326
v -0.177142 0.000089 -0.409202
v -0.235917 0.000025 0.000300
v -1.726320 -0.000000 -1.009885
v -1.582770 -0.000000 -1.222466
v -0.666335 0.000444 -1.537200
v 0.000057 0.000000 -0.000789
v -0.000192 0.000000 0.000127
v 0.000693 0.000000 -0.000487
v 0.000693 0.000000 -0.000487
v -0.962830 0.000389 0.000015
v -1.414123 -0.000000 -1.414103
v -1.222498 -0.000000 -1.582786
v -1.529815 0.000539 -0.000208
v -0.441161 0.000480 -1.017987
v -0.446266 0.000089 0.000217
v -1.009893 -0.000000 -1.726383
v -1.109835 0.000480 -0.000043
v -1.675773 0.000444 -0.000265
v -0.608261 0.000539 -1.403292
v -0.382671 0.000389 -0.883118
v -0.000401 -0.704000 0.000567
v -0.000401 -0.704000 0.000567
v -0.000267 -0.704000 0.000418
v 0.000149 -0.704000 -0.000034
v 0.000582 -0.704000 -0.000435
v -0.794843 -0.703979 -1.833670
v -0.794843 -0.703979 -1.833670
v -0.727748 -0.703710 -1.678939
v -1.998883 -0.703979 -0.000328
v -1.998883 -0.703979 -0.000328
v -1.980668 -0.703979 -0.269830
v -0.093513 -0.703976 -0.216350
v 0.000396 -0.704000 0.000155
v 0.000396 -0.704000 0.000155
v -0.000065 -0.704000 0.000393
v -0.000065 -0.704000 0.000393
v 0.000054 -0.704000 -0.001362
v 0.000054 -0.704000 -0.001362
v -0.806258 -0.703694 0.000055
v -0.635303 -0.703799 0.000122
v -1.389434 -0.703432 -0.000153
v -1.250954 -0.703456 -0.000098
v -1.927368 -0.703979 -0.530500
v -1.841379 -0.703979 -0.778053
v -0.320397 -0.703694 -0.739466
v -0.252382 -0.703799 -0.582642
v -0.552407 -0.703410 -1.274502
v -0.497309 -0.703435 -1.147451
v -1.830259 -0.703710 -0.000262
v -0.177249 -0.703890 -0.409439
v -0.236046 -0.703975 0.000300
v -1.725353 -0.703979 -1.009326
v -1.581889 -0.703979 -1.221800
v -0.666056 -0.703534 -1.536642
v -0.000007 -0.704000 -0.000789
v -0.000257 -0.703978 0.000106
v 0.000672 -0.704000 -0.000530
v 0.000672 -0.704000 -0.000530
v -0.963259 -0.703590 -0.000007
v -1.413350 -0.703979 -1.413329
v -1.221832 -0.703979 -1.581905
v -1.529514 -0.703439 -0.000208
v -0.441311 -0.703499 -1.018309
v -0.446545 -0.703890 0.000217
v -1.009335 -0.703979 -1.725438
v -1.110201 -0.703499 -0.000065
v -1.675150 -0.703534 -0.000244
v -0.608132 -0.703439 -1.403034
v -0.382864 -0.703590 -0.883505
vn -0.0013 1.0000 -0.0001
vn -0.0013 1.0000 -0.0002
vn -0.0016 1.0000 -0.0002
vn -0.0016 1.0000 -0.0001
vn -0.0009 1.0000 -0.0000
vn -0.0009 1.0000 -0.0001
vn -0.0004 1.0000 0.0000
vn 0.0000 1.0000 0.0000
vn 0.0003 1.0000 0.0000
vn 0.0005 1.0000 0.0000
vn 0.0005 1.0000 0.0001
vn 0.0006 1.0000 0.0000
vn 0.0006 1.0000 0.0001
vn 0.0004 1.0000 0.0000
vn 0.0002 1.0000 0.0000
vn 0.0001 1.0000 0.0000
vn -0.0013 1.0000 -0.0003
vn -0.0015 1.0000 -0.0004
vn -0.0009 1.0000 -0.0002
vn -0.0004 1.0000 -0.0001
vn 0.0003 1.0000 0.0001
vn 0.0006 1.0000 0.0002
vn 0.0004 1.0000 0.0001
vn -0.0013 1.0000 -0.0005
vn -0.0015 1.0000 -0.0006
vn -0.0008 1.0000 -0.0003
vn -0.0004 1.0000 -0.0002
vn 0.0005 1.0000 0.0002
vn 0.0004 1.0000 0.0002
vn 0.0002 1.0000 0.0001
vn -0.0012 1.0000 -0.0007
vn -0.0014 1.0000 -0.0008
vn -0.0008 1.0000 -0.0004
vn 0.0002 1.0000 0.0002
vn 0.0005 1.0000 0.0003
vn 0.0003 1.0000 0.0002
vn -0.0011 1.0000 -0.0008
vn -0.0013 1.0000 -0.0009
vn -0.0007 1.0000 -0.0005
vn -0.0003 1.0000 -0.0002
vn 0.0004 1.0000 0.0003
vn 0.0005 1.0000 0.0004
vn 0.0001 1.0000 0.0001
vn -0.0009 1.0000 -0.0009
vn -0.0011 1.0000 -0.0011
vn -0.0006 1.0000 -0.0006
vn -0.0003 1.0000 -0.0003
vn 0.0004 1.0000 0.0004
vn 0.0003 1.0000 0.0003
vn -0.0008 1.0000 -0.0011
vn -0.0009 1.0000 -0.0013
vn -0.0005 1.0000 -0.0007
vn -0.0002 1.0000 -0.0003
vn 0.0003 1.0000 0.0004
vn 0.0004 1.0000 0.0005
vn 0.0002 1.0000 0.0003
vn 0.0001 1.0000 0.0002
vn -0.0007 1.0000 -0.0012
vn -0.0008 1.0000 -0.0013
vn -0.0004 1.0000 -0.0008
vn -0.0002 1.0000 -0.0004
vn 0.0002 1.0000 0.0005
vn 0.0003 1.0000 0.0005
vn 0.0000 1.0000 0.0001
vn -0.0006 1.0000 -0.0012
vn -0.0007 1.0000 -0.0014
vn 0.0001 1.0000 0.0003
vn 0.0013 -1.0000 0.0001
vn 0.0016 -1.0000 0.0001
vn 0.0016 -1.0000 0.0002
vn 0.0013 -1.0000 0.0002
vn 0.0009 -1.0000 0.0001
vn 0.0004 -1.0000 0.0000
vn 0.0003 -1.0000 0.0000
vn -0.0000 -1.0000 0.0000
vn -0.0002 -1.0000 0.0000
vn -0.0004 -1.0000 -0.0000
vn -0.0004 -1.0000 -0.0001
vn -0.0006 -1.0000 -0.0000
vn -0.0006 -1.0000 -0.0001
vn -0.0005 -1.0000 -0.0000
vn -0.0005 -1.0000 -0.0001
vn -0.0001 -1.0000 0.0000
vn 0.0015 -1.0000 0.0004
vn 0.0013 -1.0000 0.0003
vn 0.0009 -1.0000 0.0002
vn 0.0003 -1.0000 0.0001
vn -0.0002 -1.0000 -0.0001
vn -0.0006 -1.0000 -0.0002
vn -0.0002 -1.0000 -0.0002
vn 0.0000 -1.0000 -0.0004
vn 0.0015 -1.0000 0.0006
vn 0.0013 -1.0000 0.0005
vn 0.0008 -1.0000 0.0003
vn -0.0004 -1.0000 -0.0002
vn -0.0005 -1.0000 -0.0002
vn 0.0014 -1.0000 0.0008
vn 0.0012 -1.0000 0.0007
vn 0.0008 -1.0000 0.0004
vn 0.0003 -1.0000 0.0002
vn -0.0005 -1.0000 -0.0003
vn -0.0003 -1.0000 0.0000
vn -0.0002 -1.0000 0.0002
vn 0.0013 -1.0000 0.0009
vn 0.0011 -1.0000 0.0008
vn 0.0007 -1.0000 0.0005
vn -0.0004 -1.0000 -0.0003
vn -0.0005 -1.0000 -0.0004
vn -0.0003 -1.0000 -0.0002
vn -0.0001 -1.0000 -0.0001
vn 0.0011 -1.0000 0.0011
vn 0.0009 -1.0000 0.0009
vn 0.0006 -1.0000 0.0006
vn 0.0002 -1.0000 0.0002
vn -0.0003 -1.0000 -0.0003
vn -0.0004 -1.0000 -0.0004
vn 0.0009 -1.0000 0.0013
vn 0.0008 -1.0000 0.0011
vn 0.0005 -1.0000 0.0007
vn 0.0002 -1.0000 0.0003
vn -0.0001 -1.0000 -0.0002
vn -0.0003 -1.0000 -0.0004
vn -0.0004 -1.0000 -0.0005
vn -0.0002 -1.0000 -0.0003
vn 0.0008 -1.0000 0.0014
vn 0.0007 -1.0000 0.0012
vn 0.0004 -1.0000 0.0008
vn -0.0002 -1.0000 -0.0005
vn -0.0003 -1.0000 -0.0005
vn -0.0002 -1.0000 -0.0004
vn -0.0000 -1.0000 -0.0001
vn 0.0007 -1.0000 0.0014
vn 0.0006 -1.0000 0.0012
vn 0.0001 -1.0000 0.0000
vn 0.7264 -0.0001 0.6872
vn 0.7165 -0.0001 0.6976
vn 0.7262 -0.0001 0.6874
vn 0.7084 -0.0001 0.7058
vn 0.9174 0.0001 -0.3978
vn -0.9977 -0.0016 -0.0674
vn -0.9909 -0.0016 -0.1342
vn 0.9174 0.0000 -0.3979
vn 0.9977 -0.0001 0.0674
vn -0.0004 0.0000 1.0000
vn -0.0003 0.0000 1.0000
vn -0.9643 -0.0016 -0.2648
vn -0.9212 -0.0016 -0.3891
vn 0.9174 0.0000 -0.3978
vn -0.0003 0.0001 1.0000
vn -0.0004 0.0001 1.0000
vn -0.8631 -0.0016 -0.5051
vn -0.7913 -0.0016 -0.6113
vn -0.9563 0.0001 -0.2923
vn -0.9825 0.0001 -0.1864
vn -0.9826 0.0001 -0.1858
vn -0.9563 0.0001 -0.2925
vn -0.9944 0.0001 -0.1061
vn 0.7698 -0.0001 0.6382
vn -0.7071 -0.0016 -0.7071
vn -0.6115 -0.0016 -0.7913
vn -0.5061 -0.0016 -0.8625
vn -0.4505 -0.0016 -0.8928
vn -0.9478 0.0001 -0.3188
vn -0.9297 0.0000 -0.3683
usemtl None
s 1
f 302//1 28//2 284//3 282//4
f 320//5 29//6 28//2 302//1
f 315//7 30//7 29//6 320//5
f 294//8 31//8 30//7 315//7
f 295//9 32//9 31//8 294//8
f 319//10 33//11 32//9 295//9
f 312//12 34//13 33//11 319//10
f 292//12 35//13 34//13 312//12
f 293//10 36//11 35//13 292//12
f 317//14 37//14 36//11 293//10
f 304//15 38//15 37//14 317//14
f 288//16 290//16 38//15 304//15
f 28//2 41//17 296//18 284//3
f 29//6 42//19 41//17 28//2
f 30//7 43//20 42//19 29//6
f 31//8 44//8 43//20 30//7
f 32//9 45//21 44//8 31//8
f 33//11 46//11 45//21 32//9
f 34//13 47//22 46//11 33//11
f 35//13 48//22 47//22 34//13
f 36//11 49//11 48//22 35//13
f 37//14 50//23 49//11 36//11
f 38//15 51//15 50//23 37//14
f 290//16 308//16 51//15 38//15
f 41//17 54//24 297//25 296//18
f 42//19 55//26 54//24 41//17
f 43//20 56//27 55//26 42//19
f 44//8 57//8 56//27 43//20
f 45//21 58//21 57//8 44//8
f 46//11 59//28 58//21 45//21
f 47//22 60//22 59//28 46//11
f 48//22 61//22 60//22 47//22
f 49//11 62//28 61//22 48//22
f 50//23 63//29 62//28 49//11
f 51//15 64//30 63//29 50//23
f 308//16 309//16 64//30 51//15
f 54//24 67//31 305//32 297//25
f 55//26 68//33 67//31 54//24
f 56//27 69//27 68//33 55//26
f 57//8 70//8 69//27 56//27
f 58//21 71//34 70//8 57//8
f 59//28 72//28 71//34 58//21
f 60//22 73//35 72//28 59//28
f 61//22 74//35 73//35 60//22
f 62//28 75//35 74//35 61//22
f 63//29 76//36 75//35 62//28
f 64//30 77//30 76//36 63//29
f 309//16 274//16 77//30 64//30
f 67//31 80//37 306//38 305//32
f 68//33 81//39 80//37 67//31
f 69//27 82//40 81//39 68//33
f 70//8 83//8 82//40 69//27
f 71//34 84//34 83//8 70//8
f 72//28 85//41 84//34 71//34
f 73//35 86//42 85//41 72//28
f 74//35 87//42 86//42 73//35
f 75//35 88//41 87//42 74//35
f 76//36 89//36 88//41 75//35
f 77//30 90//30 89//36 76//36
f 274//16 276//43 90//30 77//30
f 80//37 93//44 313//45 306//38
f 81//39 94//46 93//44 80//37
f 82//40 95//47 94//46 81//39
f 83//8 96//8 95//47 82//40
f 84//34 97//34 96//8 83//8
f 85//41 98//48 97//34 84//34
f 86//42 99//48 98//48 85//41
f 87//42 100//48 99//48 86//42
f 88//41 101//48 100//48 87//42
f 89//36 102//49 101//48 88//41
f 90//30 103//43 102//49 89//36
f 276//43 277//43 103//43 90//30
f 93//44 106//50 314//51 313//45
f 94//46 107//52 106//50 93//44
f 95//47 108//53 107//52 94//46
f 96//8 109//8 108//53 95//47
f 97//34 110//34 109//8 96//8
f 98//48 111//54 110//34 97//34
f 99//48 112//55 111//54 98//48
f 100//48 113//55 112//55 99//48
f 101//48 114//54 113//55 100//48
f 102//49 115//56 114//54 101//48
f 103//43 116//57 115//56 102//49
f 277//43 278//43 116//57 103//43
f 106//50 119//58 318//59 314//51
f 107//52 120//60 119//58 106//50
f 108//53 121//61 120//60 107//52
f 109//8 122//8 121//61 108//53
f 110//34 123//34 122//8 109//8
f 111//54 124//62 123//34 110//34
f 112//55 125//63 124//62 111//54
f 113//55 126//63 125//63 112//55
f 114//54 127//63 126//63 113//55
f 115//56 128//56 127//63 114//54
f 116//57 129//57 128//56 115//56
f 278//43 310//64 129//57 116//57
f 119//58 281//65 279//66 318//59
f 120//60 307//60 281//65 119//58
f 121//61 321//61 307//60 120//60
f 122//8 300//8 321//61 121//61
f 123//34 301//67 300//8 122//8
f 124//62 316//62 301//67 123//34
f 125//63 322//63 316//62 124//62
f 126//63 298//63 322//63 125//63
f 127//63 299//62 298//63 126//63
f 128//56 303//56 299//62 127//63
f 129//57 285//57 303//56 128//56
f 310//64 286//64 285//57 129//57
f 351//68 331//69 333//70 158//71
f 369//72 351//68 158//71 159//72
f 364//73 369//72 159//72 160//74
f 343//75 364//73 160//74 161//75
f 344//76 343//75 161//75 162//76
f 368//77 344//76 162//76 163//78
f 361//79 368//77 163//78 164//80
f 341//79 361//79 164//80 165//80
f 342//81 341//79 165//80 166//82
f 366//77 342//81 166//82 167//77
f 353//76 366//77 167//77 168//76
f 337//83 353//76 168//76 339//83
f 158//71 333//70 345//84 171//85
f 159//72 158//71 171//85 172//86
f 160//74 159//72 172//86 173//87
f 161//75 160//74 173//87 174//75
f 162//76 161//75 174//75 175//88
f 163//78 162//76 175//88 176//78
f 164//80 163//78 176//78 177//89
f 165//80 164//80 177//89 178//89
f 166//82 165//80 178//89 179//82
f 167//77 166//82 179//82 180//78
f 168//76 167//77 180//78 181//90
f 339//83 168//76 181//90 357//91
f 171//85 345//84 346//92 184//93
f 172//86 171//85 184//93 185//94
f 173//87 172//86 185//94 186//87
f 174//75 173//87 186//87 187//75
f 175//88 174//75 187//75 188//88
f 176//78 175//88 188//88 189//95
f 177//89 176//78 189//95 190//89
f 178//89 177//89 190//89 191//89
f 179//82 178//89 191//89 192//96
f 180//78 179//82 192//96 193//95
f 181//90 180//78 193//95 194//88
f 357//91 181//90 194//88 358//83
f 184//93 346//92 354//97 197//98
f 185//94 184//93 197//98 198//99
f 186//87 185//94 198//99 199//100
f 187//75 186//87 199//100 200//75
f 188//88 187//75 200//75 201//88
f 189//95 188//88 201//88 202//95
f 190//89 189//95 202//95 203//101
f 191//89 190//89 203//101 204//101
f 192//96 191//89 204//101 205//101
f 193//95 192//96 205//101 206//95
f 194//88 193//95 206//95 207//102
f 358//83 194//88 207//102 323//103
f 197//98 354//97 355//104 210//105
f 198//99 197//98 210//105 211//106
f 199//100 198//99 211//106 212//100
f 200//75 199//100 212//100 213//75
f 201//88 200//75 213//75 214//88
f 202//95 201//88 214//88 215//107
f 203//101 202//95 215//107 216//108
f 204//101 203//101 216//108 217//108
f 205//101 204//101 217//108 218//107
f 206//95 205//101 218//107 219//109
f 207//102 206//95 219//109 220//90
f 323//103 207//102 220//90 325//110
f 210//105 355//104 362//111 223//112
f 211//106 210//105 223//112 224//113
f 212//100 211//106 224//113 225//114
f 213//75 212//100 225//114 226//75
f 214//88 213//75 226//75 227//90
f 215//107 214//88 227//90 228//115
f 216//108 215//107 228//115 229//116
f 217//108 216//108 229//116 230//116
f 218//107 217//108 230//116 231//116
f 219//109 218//107 231//116 232//115
f 220//90 219//109 232//115 233//90
f 325//110 220//90 233//90 326//110
f 223//112 362//111 363//117 236//118
f 224//113 223//112 236//118 237//119
f 225//114 224//113 237//119 238//120
f 226//75 225//114 238//120 239//75
f 227//90 226//75 239//75 240//121
f 228//115 227//90 240//121 241//122
f 229//116 228//115 241//122 242//123
f 230//116 229//116 242//123 243//123
f 231//116 230//116 243//123 244//122
f 232//115 231//116 244//122 245//124
f 233//90 232//115 245//124 246//90
f 326//110 233//90 246//90 327//110
f 236//118 363//117 367//125 249//126
f 237//119 236//118 249//126 250//127
f 238//120 237//119 250//127 251//120
f 239//75 238//120 251//120 252//75
f 240//121 239//75 252//75 253//121
f 241//122 240//121 253//121 254//128
f 242//123 241//122 254//128 255//129
f 243//123 242//123 255//129 256//129
f 244//122 243//123 256//129 257//129
f 245//124 244//122 257//129 258//130
f 246//90 245//124 258//130 259//121
f 327//110 246//90 259//121 359//131
f 249//126 367//125 328//132 330//133
f 250//127 249//126 330//133 356//127
f 251//120 250//127 356//127 370//120
f 252//75 251//120 370//120 349//134
f 253//121 252//75 349//134 350//121
f 254//128 253//121 350//121 365//128
f 255//129 254//128 365//128 371//129
f 256//129 255//129 371//129 347//129
f 257//129 256//129 347//129 348//128
f 258//130 257//129 348//128 352//130
f 259//121 258//130 352//130 334//121
f 359//131 259//121 334//121 335//131
f 91//135 275//136 324//136 221//135
f 117//137 104//138 234//138 247//137
f 280//139 132//139 262//139 329//139
f 283//140 27//141 157//141 332//140
f 142//142 287//142 336//142 272//142
f 291//143 289//143 338//143 340//143
f 23//144 22//144 152//144 153//144
f 19//145 18//144 148//144 149//145
f 40//146 53//147 183//147 170//146
f 139//142 140//142 270//142 269//142
f 135//148 136//148 266//148 265//148
f 15//149 14//150 144//150 145//149
f 141//142 142//142 272//142 271//142
f 26//144 25//144 155//144 156//144
f 66//151 79//152 209//152 196//151
f 132//139 133//148 263//148 262//139
f 65//153 52//154 182//155 195//156
f 52//154 39//157 169//157 182//155
f 311//158 117//137 247//137 360//158
f 22//144 21//144 151//144 152//144
f 92//159 105//160 235//160 222//159
f 18//144 17//145 147//145 148//144
f 140//142 141//142 271//142 270//142
f 136//148 137//148 267//148 266//148
f 25//144 24//144 154//144 155//144
f 118//161 131//162 261//162 248//161
f 53//147 66//151 196//151 183//147
f 104//138 91//135 221//135 234//138
f 21//144 20//145 150//145 151//144
f 17//145 16//145 146//145 147//145
f 79//152 92//159 222//159 209//152
f 133//148 134//148 264//148 263//148
f 137//148 138//148 268//148 267//148
f 105//160 118//161 248//161 235//160
f 27//141 40//146 170//146 157//141
f 24//144 23//144 153//144 154//144
f 78//163 65//153 195//156 208//163
f 20//145 19//145 149//145 150//145
f 143//164 130//164 260//164 273//164
f 134//148 135//148 265//148 264//148
f 16//145 15//149 145//149 146//145
f 138//148 139//142 269//142 268//148
