# Blender v2.79 (sub 0) OBJ File: ''
# www.blender.org
mtllib segment.mtl
o Circle.001
v -0.707107 0.000000 0.707107
v -0.382683 0.000000 0.923880
v -0.000000 0.000000 -0.000000
v -0.382683 0.496389 0.923880
v -0.707107 0.496389 0.707107
v -0.000000 0.496389 -0.000000
vn 0.0000 1.0000 0.0000
vn 0.0000 -1.0000 0.0000
vn -0.9239 0.0000 -0.3827
vn 0.7071 0.0000 0.7071
vn 0.5556 0.0000 -0.8315
usemtl None
s off
f 2//1 3//1 1//1
f 4//2 5//2 6//2
f 3//3 2//3 4//3 6//3
f 1//4 3//4 6//4 5//4
f 2//5 1//5 5//5 4//5
