# Blender v2.79 (sub 0) OBJ File: ''
# www.blender.org
mtllib segment_2.mtl
o Cylinder
v 0.346298 -0.260097 -2.630398
v 0.346298 0.260097 -2.630398
v 0.686671 -0.260097 -2.562693
v 0.686671 0.260097 -2.562693
v 1.015296 -0.260097 -2.451140
v 1.015296 0.260097 -2.451140
v 1.326548 -0.260097 -2.297648
v 1.326548 0.260097 -2.297648
v 0.111376 0.260097 -0.845989
v 0.111376 -0.260097 -0.845989
v 0.220847 0.260097 -0.824213
v 0.220847 -0.260097 -0.824213
v 0.326539 0.260097 -0.788336
v 0.326539 -0.260097 -0.788336
v 0.426644 0.260097 -0.738970
v 0.426644 -0.260097 -0.738970
vn 0.1951 0.0000 -0.9808
vn 0.3214 0.0000 -0.9469
vn 0.4423 0.0000 -0.8969
vn 0.8660 -0.0000 0.5000
vn 0.0000 1.0000 -0.0000
vn -0.9914 -0.0000 -0.1305
vn -0.3214 0.0000 0.9469
vn -0.1951 -0.0000 0.9808
vn 0.0000 -1.0000 -0.0000
vn -0.4423 -0.0000 0.8969
usemtl None
s off
f 1//1 2//1 4//1 3//1
f 3//2 4//2 6//2 5//2
f 5//3 6//3 8//3 7//3
f 8//4 15//4 16//4 7//4
f 6//5 13//5 15//5 8//5
f 2//6 1//6 10//6 9//6
f 4//5 11//5 13//5 6//5
f 11//7 12//7 14//7 13//7
f 9//8 10//8 12//8 11//8
f 3//9 5//9 14//9 12//9
f 5//9 7//9 16//9 14//9
f 13//10 14//10 16//10 15//10
f 1//9 3//9 12//9 10//9
f 2//5 9//5 11//5 4//5
